<?xml version="1.0" encoding="UTF-8"?>
<svg id="Layer_2" data-name="Layer 2" xmlns="http://www.w3.org/2000/svg" viewBox="0 0 405.74 66.69">
  <defs>
    <style>
      .cls-1 {
        fill: #231f20;
        stroke-width: 0px;
      }
    </style>
  </defs>
  <g id="Layer_1-2" data-name="Layer 1">
    <g>
      <g>
        <path class="cls-1" d="M243.3,66.69c0-13.3-.02-26.59.07-39.89.02-2.49-.15-4.31-3.37-3.9-.53.07-1.17-.68-1.76-1.05.58-.51,1.14-1.42,1.75-1.45,2.7-.16,5.41-.07,8.28-.07.09,1.24.16,2.3.24,3.46,8.85-6.1,15.01-6.36,20.16-.96,5.41,5.67,6.17,16.74,1.57,22.79-5.46,7.18-11.51,7.78-22.18,2.19v18.86h-4.78ZM267.7,35.67c-.7-2.47-1.06-5.12-2.17-7.39-1.89-3.87-5.2-5.96-9.66-5.49-4.17.44-6.74,3.06-8.03,6.85-.65,1.9-.97,3.98-1.04,5.99-.24,7.65,4.03,13.09,10.14,13.14,6.24.05,10.4-5.17,10.76-13.1Z"/>
        <path class="cls-1" d="M351.57,50.13c-2.98,0-5.95.07-8.92-.08-.4-.02-.92-1.12-1.06-1.79-.24-1.17-.23-2.39-1.09-4.1-.47.71-.88,1.49-1.43,2.13-3.59,4.18-8.13,6.5-13.59,5.15-5.32-1.32-7.58-5.72-8.79-10.74-1.83-7.59.64-16.01,5.86-19.83,5.73-4.19,12.39-3.55,19.39,2.05,0-4.23.12-8.26-.1-12.26-.04-.84-1.19-1.77-2.03-2.4-1.11-.83-2.41-1.41-3.63-2.1.04-.31.09-.61.13-.92,3.43-.53,6.86-1.07,10.34-1.61v43.71c1.68.39,3.35.78,5.02,1.17-.03.54-.07,1.07-.1,1.61ZM320.89,34.61c.58,2.37.84,4.55,1.64,6.51,2.65,6.51,9.47,8.26,14.68,3.91,4.39-3.66,6.23-10.93,3.91-16.11-1.81-4.04-4.56-7.12-9.35-7.34-4.22-.2-7.19,2.03-8.83,5.71-1.04,2.33-1.42,4.96-2.06,7.32Z"/>
        <path class="cls-1" d="M199.88,32.81c2.57,3.33,4.79,6.49,7.33,9.38,2.44,2.79,5.21,5.29,7.72,7.8-3.82,2.3-7.88,1.52-10.9-2.57-2.57-3.47-5.19-6.9-7.89-10.26-.48-.59-1.44-.8-2.17-1.18-.38.75-1.05,1.49-1.07,2.25-.1,2.84-.24,5.72.16,8.5.21,1.45,1.51,2.74,2.45,4.33-3.21.24-6.54.49-10.33.77,4.23-6.13,2.23-12.44,2.6-18.38.43-6.9.02-13.85.02-20.78,0-2.44.15-4.86-3.13-5.46-.47-.09-1.21-1.09-1.09-1.41.21-.59.9-1.32,1.49-1.43,2.55-.46,5.13-.72,8-1.09v29.38c5.82-2.46,12.37-9.96,10.93-13.25,2.98.25,5.67.48,9.15.77-4.83,4.6-8.97,8.54-13.27,12.63Z"/>
        <path class="cls-1" d="M92.01,6.25c.16,3.39.39,6.77.43,10.15,0,.72-.68,1.44-1.05,2.16-.71-.54-1.8-.95-2.06-1.65-2.42-6.58-2.38-6.59-9.59-6.47-.89.01-1.78,0-2.93,0,0,5.99,0,11.76,0,17.52,0,5.57.1,11.14.02,16.71-.04,2.93.35,5.29,4.07,5.17.19,0,.42.17.57.32.15.15.21.39.53.99h-14.26c4.61-1.73,3.58-5.58,3.57-8.84-.03-9.32-.27-18.64-.33-27.95-.02-2.86-1.08-4.23-4.07-3.77-.89.14-1.84.16-2.72,0-3.57-.6-5.21.88-5.52,4.47-.2,2.41-.45,2.38-2.67,2.04V6.25h36.01Z"/>
        <path class="cls-1" d="M397.26,44.73c-3.42,2.03-6.38,4.42-9.76,5.65-4.62,1.69-9.22-.49-10.98-4.33-1.7-3.7-.19-8.86,4.09-11.12,3.75-1.98,8.04-2.91,12.04-4.44,1.4-.54,2.66-1.48,3.98-2.23-1.03-1.76-1.65-4.1-3.17-5.17-3.12-2.19-6.9-1.75-10.04.03-1.23.7-1.45,3.19-2.25,5.16h-2.64c-.17-2.71-.33-5.27-.54-8.71,5.01-.22,10.08-.99,15.03-.51,4.87.47,7.7,4.28,7.98,9.19.27,4.76.51,9.54.45,14.31-.04,3.04.72,4.85,4.3,4.34-.17,2.96-2.02,3.25-4.15,3.49-4.98.57-3.03-4.03-4.33-5.66ZM396.07,31.92c-3.93,1.35-7.97,2.36-11.66,4.11-3.27,1.55-4.19,5.32-2.69,8.15,1.41,2.67,4.79,3.86,8.03,2.27,6-2.95,8.67-6.35,6.32-14.52Z"/>
        <path class="cls-1" d="M127.47,35.23c-.87,8.5,5.03,13.88,12.54,11.96,1.93-.49,3.68-1.67,5.57-2.39.69-.26,1.53-.12,2.3-.17-.32.64-.49,1.46-.99,1.9-3.93,3.41-8.55,5.33-13.72,4.78-2.43-.26-5.08-1.41-6.98-2.96-4.74-3.84-6.16-11.86-3.69-18.55,2.37-6.45,6.96-10.24,13.88-10.8,5.81-.48,10.95,3.34,12.13,8.77.85,3.89-.75,6.05-4.67,6.32-5.49.38-10.98.76-16.36,1.13ZM126.65,32.99c.35.27.71.54,1.06.8,3.89-.56,7.79-1.01,11.65-1.73,3.54-.66,4.65-3.46,2.83-6.59-2.23-3.84-7.7-4.6-10.69-1.03-2.07,2.47-3.27,5.67-4.85,8.54Z"/>
        <path class="cls-1" d="M158.81,32.95c-.22,6.05,1.39,10.26,5.9,12.79,5.99,3.37,10.84.57,15.43-3.78,1.32,2.83-.26,4.39-1.8,5.77-4.95,4.43-10.66,4.82-16.56,2.43-6.01-2.43-8.82-7.35-9.13-13.62-.52-10.57,7.79-18.66,17.28-17.05,5.79.98,9.28,5.34,10.26,13.45h-21.38ZM159.52,31.95c4.92-.22,9.82-.44,14.7-.67-.08-5.81-2.45-8.9-6.58-9.02-4.34-.13-7.93,4.01-8.12,9.69Z"/>
        <path class="cls-1" d="M307.85,42.65c-.29,1.05-.35,2.26-.92,3.12-4.03,6.06-12.71,7.55-19.06,3.37-8.35-5.5-9.91-18.93-2.9-26.05,4.46-4.54,10.04-5.24,15.76-3.18,5.72,2.06,7.85,6.81,7.89,12.65-3.7.25-7.34.53-10.99.75-3.72.22-7.45.4-11.09.59-1.17,5.4,1.35,10.77,5.93,13.08,4.79,2.41,9.1,1.02,14.17-4.54l1.22.23ZM303.08,31.34c-.27-5.86-3.85-9.66-8.33-9.5-4.53.16-8,4.3-8.02,9.5h16.35Z"/>
        <path class="cls-1" d="M108.39,51.19h-12.27c4.68-1.86,3.14-5.85,3.19-9.16.1-6.11.03-12.21.03-18.48-1.44-.27-2.58-.48-3.73-.7l-.19-1.07c2.85-.76,5.71-1.53,8.99-2.4.18,3.01.32,5.32.46,7.63l-.66-.87c2.2-1.68,4.33-3.47,6.64-5,1.18-.78,2.63-1.32,4.03-1.54,2.43-.38,3.97.5,3.62,3.37-.22,1.88-.23,3.78-.4,6.82-1.4-1.5-2.52-2.16-2.8-3.09-.99-3.24-2.88-2.8-4.89-1.31-3.37,2.5-5.21,5.94-5.38,10.16-.11,2.72-.09,5.45-.08,8.17.02,2.87-1.06,6.3,4.05,6.69-.2.26-.41.52-.61.78Z"/>
        <path class="cls-1" d="M219.84,22.54c3.67-3.42,7.28-1.62,10.31-2.21,0,6.84,0,13.37,0,19.91,0,.57-.04,1.14-.05,1.7q-.07,5.13,4.31,8.72h-12.83c4.14-1.81,3.12-5.41,3.22-8.54.13-4.2.25-8.41.25-12.62,0-3.22,1.97-7.75-5.2-6.96Z"/>
        <path class="cls-1" d="M367.48,50.43c-3.14,0-6.29.05-9.43-.05-.47-.01-.91-.71-1.37-1.09.35-.35.68-.98,1.07-1.02,2.53-.24,2.28-2.06,2.27-3.77-.01-6.59-.13-13.18.02-19.76.06-2.49-.29-4.09-3.4-3.3,1.8-3.86,1.83-3.87,8.17-2.81,0,2.48.01,5.04,0,7.6-.03,5.11-.09,10.22-.12,15.33-.02,3.11-.96,6.55,3.86,7.96-.36.31-.71.62-1.07.92Z"/>
        <path class="cls-1" d="M361.13,13.44c-1.07-1.38-2.18-2.15-2.16-2.91.03-1.67,1.2-2.97,2.97-2.64.93.17,1.67,1.37,2.49,2.1-.95.99-1.9,1.98-3.3,3.45Z"/>
        <path class="cls-1" d="M227.35,15.91c-.98-1.77-2.13-3-1.87-3.56.52-1.11,1.82-1.86,2.8-2.76.75.84,2.26,1.9,2.1,2.48-.34,1.18-1.58,2.11-3.03,3.84Z"/>
      </g>
      <path class="cls-1" d="M20.75,48.27c0-1.02,0-2.04,0-3.05,0-.7-.21-.9-.9-.97-3.62-.36-6.96-1.52-9.98-3.54C4.68,37.24,1.51,32.43.42,26.28c-.94-5.32-.33-10.41,2.35-15.14C6.03,5.38,10.96,1.87,17.43.52,19.46.1,21.51-.08,23.57.03c5.98.33,11.01,2.71,15.01,7.17,3.04,3.39,4.93,7.36,5.52,11.87,1.01,7.72-1.42,14.26-7.11,19.55-3.29,3.05-7.23,4.85-11.66,5.56-.42.07-.83.16-1.25.21-.27.03-.36.15-.37.42-.05,1.67-.1,3.34-.17,5.01-.03.71-.07,1.43-.15,2.14-.1.86-.52,1.3-1.19,1.3-.71,0-1.27-.54-1.34-1.36-.06-.8-.06-1.6-.08-2.4-.01-.41,0-.82,0-1.24-.01,0-.02,0-.03,0ZM20.59,17.59c.02-.21.05-.33.05-.44.06-1.15.1-2.3.17-3.45.02-.26-.04-.4-.28-.54-1.24-.72-1.81-2.18-1.43-3.57.38-1.37,1.61-2.3,3.04-2.3,1.41,0,2.64.93,3.02,2.29.39,1.4-.17,2.83-1.41,3.58-.16.1-.28.16-.28.4.04,1.9.05,3.81.1,5.71.04,1.29.13,2.59.2,3.88,0,.16.03.31.06.52.11-.08.16-.12.2-.16,1.16-1.08,2.32-2.17,3.48-3.25.2-.18.27-.32.17-.61-.76-2.18,1.01-4.57,3.58-4.11,1.83.33,2.75,2.04,2.52,3.49-.29,1.83-1.82,2.97-3.58,2.71-.27-.04-.42.01-.59.2-1.38,1.53-2.76,3.06-4.34,4.4-.8.68-1.36,1.54-1.62,2.57-.23.9-.09,1.8,0,2.71.05.5.06,1,.08,1.51.06-.02.1-.02.13-.04,1.66-1.21,3.32-2.43,4.98-3.65.07-.05.11-.19.12-.29.03-.37,0-.75.06-1.12.28-1.55,1.85-2.67,3.4-2.47,1.75.23,2.88,1.62,2.82,3.23-.08,2.23-2.23,3.62-4.31,2.84-.17-.06-.29-.1-.45.04-1.22.99-2.46,1.97-3.69,2.95-.85.68-1.7,1.36-2.56,2.03-.41.32-.64.68-.61,1.23.04.7,0,1.41,0,2.11,0,.55,0,1.11,0,1.73.71-.09,1.36-.14,2-.27,5.96-1.22,10.49-4.47,13.56-9.71,1.55-2.64,2.21-5.55,2.43-8.58.18-2.59-.13-5.12-1-7.57-1.21-3.4-3.34-6.15-6.06-8.46-3.56-3.03-7.64-4.64-12.35-4.55-2.39.04-4.7.53-6.95,1.33C6.31,7.12,1.02,16.87,3.07,26.17c1.69,7.67,7.73,13.96,16.27,15.4,1.11.19,1.38-.03,1.39-1.16.02-1.78.02-3.56.05-5.34.01-.73-.23-1.34-.74-1.87-2.07-2.15-4.13-4.3-6.18-6.47-.25-.26-.44-.33-.8-.23-1.18.33-2.24.04-3.09-.84-.84-.86-1.08-1.9-.76-3.05.45-1.64,2.1-2.59,3.77-2.2,1.65.39,2.67,2,2.34,3.72-.04.21.02.3.16.42.31.26.61.52.89.81,1.27,1.33,2.53,2.66,3.81,3.99.09.1.24.13.37.19.06-.14.18-.29.18-.43.01-1.48,0-2.96.01-4.43,0-.77-.21-1.48-.6-2.14-1.04-1.79-2.09-3.57-3.11-5.37-.2-.34-.37-.62-.82-.42-.1.05-.24.03-.36.03-1.29.01-2.29-.53-2.88-1.67-.61-1.16-.52-2.33.28-3.38.78-1.03,1.86-1.42,3.12-1.17,1.86.37,2.91,2.12,2.41,3.96-.06.21-.03.35.09.53.39.55.77,1.12,1.15,1.68.18.27.36.53.59.88ZM21.15,10.45c0,.57.42.99.98.99.56,0,.99-.43.99-.99,0-.57-.42-.99-.98-.99-.57,0-.98.42-.98.98ZM12.23,22.49c-.57,0-.97.41-.97.98,0,.58.41.98.98.98.56,0,.99-.44.99-.99,0-.55-.44-.98-1-.98ZM14.74,13.63c0,.56.43,1,.98.99.55,0,.99-.45.99-.99,0-.55-.43-.98-.99-.98-.57,0-.98.41-.98.98ZM31.63,18.63c0-.56-.43-1-.98-.99-.55,0-.99.44-.99.99,0,.56.42.98.99.98.58,0,.98-.4.98-.98ZM31.11,28.68c0,.52.46,1.01.97,1.02.55,0,1-.42,1.01-.97.01-.55-.41-.99-.97-1-.57-.01-1,.4-1.01.96Z"/>
    </g>
  </g>
</svg>