<?xml version="1.0" encoding="UTF-8"?>
<svg id="Layer_2" data-name="Layer 2" xmlns="http://www.w3.org/2000/svg" viewBox="0 0 264.31 282.51">
  <defs>
    <style>
      .cls-1 {
        fill: #fff;
        stroke: #000;
        stroke-miterlimit: 10;
      }

      .cls-2 {
        fill: #18454c;
        stroke-width: 0px;
      }
    </style>
  </defs>
  <g id="Layer_2-2" data-name="Layer 2">
    <rect class="cls-1" x="18.43" y="23.6" width="217.83" height="236.09"/>
    <g id="Layer_2-2" data-name="Layer 2-2">
      <g id="Silvi-logo">
        <path id="Path_229" data-name="Path 229" class="cls-2" d="M12.5.95C7.87,2.98,4.14,6.61,1.94,11.15-.03,14.79-.03,17.66,0,141.35,0,214.56.46,268.68,1.04,270.07c2.29,4.76,6.15,8.62,10.96,10.87,3.64,1.48,15,1.57,120.72,1.57l116.77-.09,4.45-2.29c2.92-1.57,5.43-3.77,7.41-6.42l2.96-4.27-.31-128.54c-.31-107.7-.58-128.94-1.66-131.19-2.56-4.18-6.51-7.28-11.18-8.8-4.53-1.21-234.44-1.21-238.66,0,0,0,0,.04,0,.04ZM155.14,33.07c30.59,8.31,54.66,31.84,63.73,62.2,13.92,48.01-13.74,98.22-61.75,112.1-3.5,1.03-7.05,1.8-10.69,2.43l-7.59,1.17-.49,16.62c-.49,14.91-.67,16.71-2.38,17.96-2.16,1.93-5.48,1.71-7.41-.45,0,0-.09-.09-.09-.13-1.8-1.8-1.98-3.28-1.98-18.19v-16.12l-6.24-.58c-9.66-1.44-19-4.27-27.85-8.4-24.48-12.4-42.17-35.03-48.33-61.75-2.07-12.67-2.11-25.56-.09-38.22,7.41-34.13,33.73-60.99,67.68-69.17,14.42-2.38,29.1-2.25,43.48.49h0v.04h0Z"/>
        <path id="Path_230" data-name="Path 230" class="cls-2" d="M120.06,42.05c-7.81,1.66-15.45,4.18-22.73,7.5-12.44,6.06-23.04,15.4-30.63,26.99-17.61,26.18-17.92,60.36-.81,86.82,11.63,17.79,29.82,30.27,50.57,34.76,10.87,2.29,9.97,3.55,9.97-14.24v-15.49l-15.32-15.32c-5.88-5.61-11.36-11.59-16.39-17.96-1.26-2.69-.13-5.93,2.6-7.19.85-.4,1.8-.58,2.74-.49,2.65,0,4.76,1.57,14.73,11.54l11.68,11.68v-24.43l-9.39-15.14c-3.73-5.52-6.87-11.41-9.39-17.61.22-3.19,2.92-5.66,6.11-5.61,2.87,0,5.34,2.47,9.3,9.39l2.87,4.94.49-7.72c.4-6.24.9-8.08,2.38-9.21,2.16-1.93,5.48-1.71,7.41.45,0,0,.09.09.09.13,1.89,1.89,1.98,3.28,1.98,21.24-.31,6.42,0,12.89.81,19.27,3.41-2.74,6.6-5.7,9.57-8.89,7.41-7.41,9.39-8.89,11.95-8.89,3.37,0,4.63,1.08,5.84,4.76.58,2.07-1.17,4.27-13.74,16.89l-14.42,14.51v10.06c-.18,3.37,0,6.74.49,10.06.31,0,5.93-4.27,12.53-9.39,4.22-3.68,8.85-6.83,13.83-9.39,3.14.63,5.43,3.23,5.75,6.42,0,3.05-.99,4.04-18.68,17.88l-13.83,10.78-.09,9.21v9.3l5.25-.67c19.58-3.19,37.32-13.29,50.08-28.43,6.78-8.94,11.86-19.09,15-29.82,3.14-13.34,3.14-27.17,0-40.51-7.55-27.26-28.79-48.64-56.01-56.32-10.78-1.84-21.74-2.52-32.65-1.89l.04.04h.02Z"/>
      </g>
    </g>
  </g>
</svg>